<?xml version="1.0" encoding="utf-8"?>
<!-- Svg Vector Icons : http://www.onlinewebfonts.com/icon -->
<!DOCTYPE svg PUBLIC "-//W3C//DTD SVG 1.1//EN" "http://www.w3.org/Graphics/SVG/1.1/DTD/svg11.dtd">
<svg version="1.1" xmlns="http://www.w3.org/2000/svg" xmlns:xlink="http://www.w3.org/1999/xlink" x="0px" y="0px" viewBox="0 0 1000 1000" enable-background="new 0 0 1000 1000" xml:space="preserve">
<metadata> Svg Vector Icons : http://www.onlinewebfonts.com/icon </metadata>
<g><g transform="translate(0.000000,512.000000) scale(0.100000,-0.100000)"><path d="M4600.1,5000.8c-411.7-44-905.8-189.6-1294.6-381.1C1172.1,3566.4,160.9,781.9,1016.9-1686.7c886.7-2560.5,3464.4-3784.2,5678.3-2694.5c928.8,455.8,1721.7,1317.6,2152.6,2338.3C9707.7-9.1,9278.7,2373.3,7792.6,3830.7c-260.4,254.7-375.4,348.5-651.1,534.3C6398.4,4861,5475.3,5090.9,4600.1,5000.8z M5527,3742.6c340.9-74.7,662.6-212.6,976.7-419.4c241.3-160.9,655-568.8,836.9-829.2c241.3-342.8,465.4-827.3,572.6-1235.2c113-430.9,139.8-649.2,139.8-1129.9c1.9-492.2-21.1-679.9-132.2-1110.8c-111.1-440.5-329.4-915.4-580.3-1273.5c-176.2-252.8-595.6-668.4-825.4-821.6c-720.1-476.9-1553.1-605.2-2315.3-354.3c-649.2,216.4-1256.3,710.5-1652.7,1348.2c-281.5,455.8-471.1,974.8-566.9,1560.8c-47.9,296.8-47.9,986.3,0,1283.1c80.4,494.1,189.6,829.2,406,1264c178.1,356.2,340.9,587.9,612.8,867.5C3474,3386.4,3993,3666,4611.6,3767.5C4839.5,3803.9,5295.3,3792.4,5527,3742.6z"/><path d="M2976.1,697.6c-212.6-74.7-339-206.8-402.2-423.2c-40.2-139.8-23-283.4,51.7-434.7c67-136,136-203,287.3-273.8l105.3-49.8h1982.1h1982.1l107.2,49.8c226,105.3,352.4,306.4,352.4,553.5c-1.9,247.1-114.9,434.7-331.3,540.1l-128.3,63.2l-1953.4,3.8C3190.6,730.2,3069.9,728.3,2976.1,697.6z"/></g></g>
</svg>